<svg xmlns="http://www.w3.org/2000/svg" width="21.8" height="21.8" viewBox="0 0 21.8 21.8">
  <g id="instagram" transform="translate(0.001)">
    <path id="Path_213" data-name="Path 213" d="M15.9,0H5.9A5.908,5.908,0,0,0,0,5.9v10a5.908,5.908,0,0,0,5.9,5.9h10a5.908,5.908,0,0,0,5.9-5.9V5.9A5.908,5.908,0,0,0,15.9,0Zm4.623,15.9A4.628,4.628,0,0,1,15.9,20.522H5.9A4.628,4.628,0,0,1,1.277,15.9V5.9A4.628,4.628,0,0,1,5.9,1.278h10A4.628,4.628,0,0,1,20.521,5.9Zm0,0" fill="#424242"/>
    <path id="Path_214" data-name="Path 214" d="M121.965,116a5.961,5.961,0,1,0,5.961,5.961A5.967,5.967,0,0,0,121.965,116Zm0,10.644a4.683,4.683,0,1,1,4.683-4.683A4.688,4.688,0,0,1,121.965,126.648Zm0,0" transform="translate(-111.066 -111.065)" fill="#424242"/>
    <path id="Path_215" data-name="Path 215" d="M359.738,66.285a1.761,1.761,0,1,0,1.762,1.761A1.763,1.763,0,0,0,359.738,66.285Zm0,2.245a.483.483,0,1,1,.483-.483A.484.484,0,0,1,359.738,68.53Zm0,0" transform="translate(-342.736 -63.463)" fill="#424242"/>
  </g>
</svg>
