<svg xmlns="http://www.w3.org/2000/svg" width="21.8" height="21.8" viewBox="0 0 21.8 21.8">
  <g id="linkedin" transform="translate(-1227 -48)">
    <g id="linkedin_1_" data-name="linkedin (1)" transform="translate(1233 49.733)">
      <g id="Group_102" data-name="Group 102" transform="translate(-1 4.267)">
        <g id="Group_101" data-name="Group 101">
          <path id="Path_216" data-name="Path 216" d="M.5,4.267a1.472,1.472,0,0,0-1.058.427A1.476,1.476,0,0,0-1,5.752,1.489,1.489,0,0,0-.554,6.811a1.416,1.416,0,0,0,1.04.427H.523a1.407,1.407,0,0,0,1-.427,1.489,1.489,0,0,0,.446-1.058,1.387,1.387,0,0,0-.427-1.04A1.405,1.405,0,0,0,.5,4.267Zm.761,2.284a1.023,1.023,0,0,1-.78.316,1.127,1.127,0,0,1-.78-.316,1.08,1.08,0,0,1-.334-.8A1.11,1.11,0,0,1,.5,4.638a1.083,1.083,0,0,1,.761.316,1.11,1.11,0,0,1,.334.8A1.08,1.08,0,0,1,1.265,6.551Z" transform="translate(1 -5.267)" fill="#424242" stroke="#424242" stroke-width="0.6"/>
          <path id="Path_217" data-name="Path 217" d="M9.575,157.867h-1.5a.543.543,0,0,0-.538.557v6.5a.571.571,0,0,0,.557.557H9.575a.568.568,0,0,0,.557-.538v-6.517A.571.571,0,0,0,9.575,157.867Zm.186,7.074a.183.183,0,0,1-.186.167H8.09a.2.2,0,0,1-.186-.186v-6.5a.183.183,0,0,1,.167-.186h1.5a.2.2,0,0,1,.186.186Z" transform="translate(-7.347 -154.525)" fill="#424242" stroke="#424242" stroke-width="0.4"/>
          <path id="Path_218" data-name="Path 218" d="M173.659,149.333h-.39a2.508,2.508,0,0,0-1.857.817v-.26a.4.4,0,0,0-.371-.371h-1.857a.381.381,0,0,0-.371.353V156.8a.365.365,0,0,0,.371.334h2.042a.365.365,0,0,0,.371-.334v-4.01a1.048,1.048,0,0,1,1.021-1.1,1.094,1.094,0,0,1,.78.316.975.975,0,0,1,.26.761v3.992a.4.4,0,0,0,.371.371h1.857a.4.4,0,0,0,.371-.371v-4.79A2.58,2.58,0,0,0,173.659,149.333Zm2.228,7.408-.019.019h-1.82l-.019-3.992a1.367,1.367,0,0,0-.353-1.021,1.46,1.46,0,0,0-1.04-.427,1.432,1.432,0,0,0-1.393,1.467v3.973H169.2v-6.87h1.838l.019.019v1.17l.5-.5.019-.019a2.119,2.119,0,0,1,1.708-.854h.39a2.216,2.216,0,0,1,2.209,2.265Z" transform="translate(-164.118 -146.177)" fill="#424242" stroke="#424242" stroke-width="0.4"/>
        </g>
      </g>
    </g>
    <path id="Path_219" data-name="Path 219" d="M15.9,0H5.9A5.908,5.908,0,0,0,0,5.9v10a5.908,5.908,0,0,0,5.9,5.9h10a5.908,5.908,0,0,0,5.9-5.9V5.9A5.908,5.908,0,0,0,15.9,0Zm4.623,15.9A4.628,4.628,0,0,1,15.9,20.522H5.9A4.628,4.628,0,0,1,1.277,15.9V5.9A4.628,4.628,0,0,1,5.9,1.278h10A4.628,4.628,0,0,1,20.521,5.9Zm0,0" transform="translate(1227.001 48)" fill="#424242"/>
  </g>
</svg>
