<svg xmlns="http://www.w3.org/2000/svg" width="237.729" height="91.788" viewBox="0 0 237.729 91.788">
  <g id="Logo-immortal" transform="translate(-5243 2892.394)">
    <text id="IMMORTAL" transform="translate(5339.729 -2838)" font-size="20" font-family="SegoeUI, Segoe UI" letter-spacing="0.3em"><tspan x="0" y="0">IMMORTAL</tspan></text>
    <g id="IMMORTAL_Black" data-name="IMMORTAL Black" transform="translate(5230.355 -2892.393)">
      <path id="Path_69" data-name="Path 69" d="M409.19,206.176a45.9,45.9,0,1,1,.708-91.787c25.06.13,45.449,20.885,45.3,46.114A45.866,45.866,0,0,1,409.19,206.176Zm.1-6.5a39.434,39.434,0,0,0,39.431-39.207c.083-21.648-17.5-39.549-38.916-39.616a39.413,39.413,0,1,0-.515,78.823Z" transform="translate(-350.754 -114.39)"/>
      <path id="Path_70" data-name="Path 70" d="M462.383,206.852l7.276-2c.169,1.926.373,3.9.484,5.869a1.179,1.179,0,0,1-.633.892,32.627,32.627,0,0,1-21.066,0,1.27,1.27,0,0,1-.594-1.026c.1-1.9.3-3.8.468-5.716l7.308,2V154.39c-1.368.3-2.649.519-3.892.873s-2.473.849-3.844,1.329L445.26,151c6.985-3.99,19.1-4.466,27.477-.063-.88,1.883-1.761,3.774-2.575,5.523-2.323-.641-4.532-1.254-6.745-1.848a6.516,6.516,0,0,0-1.034-.11Z" transform="translate(-400.436 -134.677)" fill="#fff" stroke="#d6d6d6" stroke-width="1"/>
      <path id="Path_71" data-name="Path 71" d="M429.581,159.28l4.19,8.951q2.925,6.254,5.837,12.52a3.122,3.122,0,0,1,.35,1.234c.028,4.76,0,9.525-.2,14.371l-4.87-10.4-.263.043c-.9,10.252-1.8,20.5-2.752,31.129-2.091-1.415-3.966-2.653-5.8-3.951-.2-.145-.263-.633-.236-.947q1.631-18.762,3.286-37.513a3.33,3.33,0,0,0-.271-1.572c-1.34-2.968-2.7-5.928-4.12-8.856-.334-.692-.342-1.128.3-1.6C426.519,161.607,427.961,160.5,429.581,159.28Z" transform="translate(-387.842 -141.635)"/>
      <path id="Path_72" data-name="Path 72" d="M504.816,217.094c-.48-5.413-.94-10.547-1.391-15.677s-.892-10.24-1.608-15.409l-4.894,10.464-.2-.031V192.6c0-2.752.086-5.5-.027-8.224a10.928,10.928,0,0,1,1.179-5.362c2.964-6.2,5.837-12.43,8.75-18.652.13-.279.295-.546.542-1,1.635,1.242,3.223,2.414,4.753,3.66a1.215,1.215,0,0,1,.086,1.089c-1.325,2.932-2.728,5.826-4.033,8.762a4.587,4.587,0,0,0-.393,2.158c1.034,12.068,2.076,24.136,3.216,36.2a2.648,2.648,0,0,1-1.407,2.984C507.905,215.069,506.47,216.048,504.816,217.094Z" transform="translate(-431.649 -141.684)"/>
      <path id="Path_73" data-name="Path 73" d="M538.449,176.57c10.614,11.156,11.274,31.561-.841,43.846-.2-2.229-.326-4.355-.6-6.462a10.1,10.1,0,0,1,.869-5.484,25.633,25.633,0,0,0-1.942-24.615,1.655,1.655,0,0,1-.114-1.844c.881-1.777,1.686-3.593,2.524-5.389C538.359,176.594,538.414,176.586,538.449,176.57Z" transform="translate(-455.259 -152.128)" fill="#fff" stroke="#d6d6d6" stroke-width="1"/>
      <path id="Path_74" data-name="Path 74" d="M405.755,220.065c-11.081-11.117-12.229-31.015-.711-43.865.983,2.127,1.965,4.179,2.854,6.258.1.24-.09.68-.263.955-5.319,8.617-5.657,17.469-1.309,26.561a2.359,2.359,0,0,1,.334,1.112c-.224,2.846-.5,5.692-.767,8.538A2.218,2.218,0,0,1,405.755,220.065Z" transform="translate(-371.092 -151.904)" fill="#fff" stroke="#d6d6d6" stroke-width="1"/>
    </g>
  </g>
</svg>
