<svg xmlns="http://www.w3.org/2000/svg" xmlns:xlink="http://www.w3.org/1999/xlink" width="77.001" height="77" viewBox="0 0 77.001 77">
  <defs>
    <filter id="Path_220" x="0" y="0" width="77.001" height="77" filterUnits="userSpaceOnUse">
      <feOffset dy="3" input="SourceAlpha"/>
      <feGaussianBlur stdDeviation="3" result="blur"/>
      <feFlood flood-opacity="0.161"/>
      <feComposite operator="in" in2="blur"/>
      <feComposite in="SourceGraphic"/>
    </filter>
  </defs>
  <g id="whatsapp" transform="translate(9 6)">
    <g transform="matrix(1, 0, 0, 1, -9, -6)" filter="url(#Path_220)">
      <path id="Path_220-2" data-name="Path 220" d="M50.445,8.479A29.849,29.849,0,0,0,29.611,0C7.068,0-7.087,24.424,4.169,43.852L0,59l15.574-4.061C22.359,58.6,27.917,58.28,29.625,58.5c26.139,0,39.151-31.624,20.783-49.921Z" transform="translate(9 6)" fill="#424242"/>
    </g>
    <path id="Path_221" data-name="Path 221" d="M26.558,50.6l-.015,0H26.5a24.77,24.77,0,0,1-13.312-3.919l-9.219,2.4L6.444,40.12,5.857,39.2A24.26,24.26,0,0,1,2.13,26.267c0-21.616,26.415-32.425,41.7-17.147C59.08,24.239,48.374,50.6,26.558,50.6Z" transform="translate(3.106 2.867)" fill="#fff"/>
    <path id="Path_222" data-name="Path 222" d="M34.322,25.908l-.022.184c-.74-.369-4.344-2.131-5.015-2.375-1.507-.558-1.082-.089-3.975,3.225-.43.479-.858.516-1.588.184a19.952,19.952,0,0,1-5.907-3.651,22.3,22.3,0,0,1-4.081-5.089c-.72-1.244.787-1.421,2.158-4.017a1.351,1.351,0,0,0-.061-1.288c-.184-.369-1.652-3.983-2.267-5.423-.59-1.436-1.2-1.254-1.652-1.254-1.416-.123-2.451-.1-3.363.846-3.968,4.361-2.967,8.86.428,13.644C15.649,29.627,19.2,31.235,25.7,33.467a10.171,10.171,0,0,0,4.622.3c1.411-.224,4.344-1.772,4.956-3.506a6.085,6.085,0,0,0,.443-3.5c-.182-.332-.664-.516-1.4-.848Z" transform="translate(8.716 9.264)" fill="#424242"/>
  </g>
</svg>
